<?xml version="1.0" standalone="no"?>
<!DOCTYPE svg PUBLIC "-//W3C//DTD SVG 20010904//EN"
 "http://www.w3.org/TR/2001/REC-SVG-20010904/DTD/svg10.dtd">
<svg version="1.0" xmlns="http://www.w3.org/2000/svg"
 width="778.000000pt" height="766.000000pt" viewBox="0 0 778.000000 766.000000"
 preserveAspectRatio="xMidYMid meet">
<metadata>
Created by potrace 1.15, written by Peter Selinger 2001-2017
</metadata>
<g transform="translate(0.000000,766.000000) scale(0.100000,-0.100000)"
fill="#FFFFFF" stroke="none">
<path d="M2420 7428 c-14 -6 -38 -17 -55 -24 -678 -288 -1293 -796 -1704
-1409 -135 -201 -300 -515 -384 -730 -175 -449 -267 -937 -267 -1415 0 -189
23 -470 50 -625 53 -296 121 -542 217 -790 84 -214 251 -532 384 -730 382
-570 951 -1059 1559 -1342 153 -71 149 -70 193 -87 l37 -15 0 160 0 160 -117
57 c-146 72 -277 145 -391 219 -96 62 -304 217 -367 271 -117 104 -225 207
-225 216 0 10 161 93 285 146 28 12 64 27 80 34 90 39 324 120 330 114 1 -1
15 -32 30 -68 55 -131 170 -359 252 -495 136 -226 123 -237 123 91 l0 282 -33
68 c-52 106 -91 204 -84 210 3 3 29 11 59 18 l53 11 3 154 c2 128 0 152 -11
148 -43 -16 -198 -49 -210 -44 -8 3 -17 16 -19 29 -3 13 -24 86 -46 163 -120
411 -199 931 -214 1390 l-3 100 253 3 252 2 0 150 0 150 -252 2 -253 3 3 85
c15 473 95 994 214 1405 22 77 43 150 46 163 2 13 11 26 19 29 12 5 167 -28
210 -44 11 -4 13 20 11 148 l-3 154 -53 11 c-30 7 -56 15 -59 18 -7 7 34 108
84 208 l33 68 0 282 c0 330 13 320 -123 93 -80 -134 -208 -385 -257 -507 -13
-32 -26 -58 -29 -58 -19 0 -243 80 -345 123 -30 12 -270 124 -318 148 -16 8
-28 19 -28 25 0 6 39 47 88 91 293 269 553 448 895 615 l117 58 0 160 c0 88
-1 160 -2 159 -2 0 -14 -5 -28 -11z m-1109 -1381 c183 -93 270 -131 474 -207
77 -29 144 -55 148 -60 5 -4 -1 -38 -13 -76 -85 -267 -159 -590 -200 -869 -44
-299 -56 -430 -67 -687 l-6 -148 -663 0 c-364 0 -665 3 -667 8 -7 10 20 288
38 402 93 579 322 1118 675 1585 56 74 105 135 109 135 5 0 82 -38 172 -83z
m343 -2504 c22 -530 118 -1088 263 -1536 14 -44 21 -82 17 -87 -5 -4 -72 -31
-149 -60 -204 -76 -291 -114 -474 -207 -90 -45 -167 -83 -172 -83 -13 0 -209
266 -290 397 -68 108 -217 391 -256 488 -114 280 -193 555 -238 835 -18 114
-45 392 -38 403 2 4 302 7 667 7 l663 0 7 -157z"/>
<path d="M5300 7272 l0 -158 93 -44 c242 -114 523 -295 752 -484 99 -82 245
-219 245 -230 0 -10 -153 -89 -280 -144 -123 -54 -388 -152 -410 -152 -3 0
-17 26 -30 58 -70 172 -245 502 -346 652 l-24 35 0 -286 0 -285 28 -60 c16
-32 41 -90 57 -127 32 -77 31 -81 -42 -92 l-43 -6 0 -153 0 -153 93 24 c108
28 128 27 138 -7 3 -14 23 -81 43 -148 122 -416 204 -950 218 -1417 l3 -90
-247 -3 -248 -2 0 -150 0 -150 248 -2 247 -3 -3 -100 c-15 -457 -98 -998 -218
-1407 -20 -67 -40 -134 -43 -148 -10 -34 -30 -35 -138 -7 l-93 24 0 -153 0
-153 43 -6 c73 -11 74 -15 42 -92 -16 -37 -41 -95 -57 -127 l-28 -60 0 -285 0
-286 24 35 c98 146 267 462 336 630 33 79 37 82 90 66 49 -15 253 -90 285
-106 11 -5 43 -19 70 -30 120 -51 285 -136 285 -146 0 -9 -108 -113 -225 -215
-181 -159 -533 -387 -772 -499 l-93 -44 0 -158 0 -159 23 6 c27 9 50 19 197
88 609 284 1178 774 1559 1342 135 201 300 515 384 730 175 449 267 937 267
1415 0 699 -191 1389 -551 1986 -253 421 -587 790 -994 1099 -118 90 -317 220
-446 291 -122 67 -363 182 -416 199 l-23 6 0 -159z m1410 -1277 c353 -468 580
-1000 675 -1585 18 -113 45 -392 38 -402 -2 -5 -303 -8 -669 -8 l-664 0 0 80
c0 93 -26 444 -40 540 -5 36 -12 90 -15 120 -29 251 -123 676 -214 963 -12 37
-20 71 -17 76 3 4 40 20 83 35 176 62 348 136 518 222 99 50 185 92 192 93 6
0 57 -60 113 -134z m713 -2302 c6 -12 -21 -295 -38 -403 -81 -496 -258 -959
-523 -1370 -68 -105 -251 -350 -261 -350 -5 0 -82 38 -172 83 -183 93 -270
131 -474 207 -77 29 -144 55 -148 60 -5 4 1 38 13 76 106 340 181 685 225
1044 21 172 45 478 45 578 l0 82 664 0 c366 0 667 -3 669 -7z"/>
<path d="M3818 5888 l-3 -153 -90 -12 c-243 -35 -455 -141 -610 -304 -117
-123 -179 -232 -231 -404 -26 -84 -28 -103 -28 -275 -1 -163 2 -195 22 -270
84 -308 311 -471 860 -621 l82 -22 0 -624 0 -625 -42 7 c-62 11 -155 43 -222
76 -241 122 -376 316 -402 579 l-7 70 -198 0 -199 0 0 -28 c0 -117 82 -408
149 -527 163 -291 464 -486 826 -538 l90 -12 3 -193 2 -192 130 0 130 0 0 194
0 193 73 8 c115 11 293 61 402 114 353 169 555 494 555 893 0 377 -226 682
-623 839 -28 12 -131 42 -227 69 l-175 47 -3 582 -2 581 27 -6 c135 -31 218
-78 313 -173 80 -82 122 -152 160 -277 12 -38 23 -75 25 -81 3 -10 52 -13 201
-13 l197 0 -7 40 c-18 113 -120 359 -194 466 -59 86 -140 177 -197 222 -114
89 -279 164 -420 191 -33 7 -70 14 -82 17 -23 4 -23 7 -23 159 l0 155 -130 0
-129 0 -3 -152z m2 -1088 l0 -550 -27 6 c-136 33 -309 119 -386 193 -119 113
-160 269 -122 468 32 166 121 284 275 361 89 44 172 70 228 71 l32 1 0 -550z
m377 -1076 c270 -91 401 -195 460 -366 21 -59 25 -89 24 -180 -1 -187 -42
-306 -144 -414 -89 -96 -230 -159 -399 -179 l-58 -7 0 591 c0 325 2 591 5 591
2 0 53 -16 112 -36z"/>
</g>
</svg>
